<svg id="Calque_1" data-name="Calque 1" xmlns="http://www.w3.org/2000/svg" viewBox="0 0 5669.29 5669.29"><defs><style>.cls-1{fill:#fff;}.cls-2{fill:#e6332a;}.cls-3{fill:none;stroke:#1d1d1b;stroke-miterlimit:10;stroke-width:350px;}</style></defs><rect class="cls-1" width="5669.29" height="5669.29"/><path class="cls-2" d="M1851.23,2030H1381.86V4573H728.72V2030H259.35V1096.24H1851.23Z"/><path class="cls-2" d="M2705.5,1096.24V4573H2052.36V1096.24Z"/><path class="cls-2" d="M5409.94,2834.64H4794.05V1299.88L4607.79,2834.64H3800.68L3619.39,1314.78V2834.64H3001V1096.24h1095.2L4215.41,2636l161.42-1539.73H5409.94Z"/><path class="cls-2" d="M3001,2834.64h615.9V4369.4l186.25-1534.76h807.12L4791.57,4354.5V2834.64h618.37V4573H4314.75L4195.54,3033.32,4034.12,4573H3001Z"/><line class="cls-3" x1="259.35" y1="2729.23" x2="1268.99" y2="2729.23"/><line class="cls-3" x1="259.35" y1="3411.64" x2="3710.89" y2="3411.64"/><line class="cls-3" x1="259.35" y1="4012.91" x2="3710.89" y2="4012.91"/></svg>