<?xml version="1.0" encoding="utf-8"?>
<!-- Generator: Adobe Illustrator 25.4.1, SVG Export Plug-In . SVG Version: 6.00 Build 0)  -->
<svg version="1.1" id="Calque_1" xmlns="http://www.w3.org/2000/svg" xmlns:xlink="http://www.w3.org/1999/xlink" x="0px" y="0px"
	 viewBox="0 0 16 16" style="enable-background:new 0 0 16 16;" xml:space="preserve">
<style type="text/css">
	.st0{fill:#FFFFFF;}
	.st1{fill:#E6332A;}
	.st2{fill:none;stroke:#000000;stroke-miterlimit:10;}
</style>
<rect y="0.13" class="st0" width="16" height="16"/>
<g>
	<path class="st1" d="M5.22,5.86H3.9v7.18H2.06V5.86H0.73V3.22h4.49V5.86z"/>
	<path class="st1" d="M7.63,3.22v9.81H5.79V3.22H7.63z"/>
	<path class="st1" d="M15.27,8.13h-1.74V3.8L13,8.13h-2.28l-0.51-4.29v4.29H8.47V3.22h3.09l0.34,4.35l0.46-4.35h2.92V8.13z"/>
	<path class="st1" d="M8.47,8.13h1.74v4.33l0.53-4.33h2.28l0.51,4.29V8.13h1.75v4.91h-3.09l-0.34-4.35l-0.46,4.35H8.47V8.13z"/>
</g>
<line class="st2" x1="0.73" y1="7.83" x2="3.58" y2="7.83"/>
<line class="st2" x1="0.73" y1="9.76" x2="10.47" y2="9.76"/>
<line class="st2" x1="0.73" y1="11.45" x2="10.47" y2="11.45"/>
</svg>
